HIERARCHY
ROOT Hips
{
	OFFSET 0.00000 0.00000 0.00000
	CHANNELS 6 Xposition Yposition Zposition Zrotation Yrotation Xrotation 
	JOINT LHipJoint
	{
		OFFSET 0 0 0
		CHANNELS 3 Zrotation Yrotation Xrotation
		JOINT LeftUpLeg
		{
			OFFSET 1.76014 -1.80163 0.38499
			CHANNELS 3 Zrotation Yrotation Xrotation
			JOINT LeftLeg
			{
				OFFSET 2.46817 -6.78126 0.00000
				CHANNELS 3 Zrotation Yrotation Xrotation
				JOINT LeftFoot
				{
					OFFSET 2.79348 -7.67503 0.00000
					CHANNELS 3 Zrotation Yrotation Xrotation
					JOINT LeftToeBase
					{
						OFFSET 0.09421 -0.25885 1.91403
						CHANNELS 3 Zrotation Yrotation Xrotation
						End Site
						{
							OFFSET 0.00000 -0.00000 0.97975
						}
					}
				}
			}
		}
	}
	JOINT RHipJoint
	{
		OFFSET 0 0 0
		CHANNELS 3 Zrotation Yrotation Xrotation
		JOINT RightUpLeg
		{
			OFFSET -1.77926 -1.80163 0.38499
			CHANNELS 3 Zrotation Yrotation Xrotation
			JOINT RightLeg
			{
				OFFSET -2.51996 -6.92353 0.00000
				CHANNELS 3 Zrotation Yrotation Xrotation
				JOINT RightFoot
				{
					OFFSET -2.76109 -7.58603 0.00000
					CHANNELS 3 Zrotation Yrotation Xrotation
					JOINT RightToeBase
					{
						OFFSET -0.08067 -0.22163 1.86812
						CHANNELS 3 Zrotation Yrotation Xrotation
						End Site
						{
							OFFSET -0.00000 -0.00000 0.95558
						}
					}
				}
			}
		}
	}
	JOINT LowerBack
	{
		OFFSET 0 0 0
		CHANNELS 3 Zrotation Yrotation Xrotation
		JOINT Spine
		{
			OFFSET 0.05537 1.92033 -0.03713
			CHANNELS 3 Zrotation Yrotation Xrotation
			JOINT Spine1
			{
				OFFSET 0.04452 1.90073 0.10860
				CHANNELS 3 Zrotation Yrotation Xrotation
				JOINT Neck
				{
					OFFSET 0 0 0
					CHANNELS 3 Zrotation Yrotation Xrotation
					JOINT Neck1
					{
						OFFSET 0.00903 1.74649 0.02074
						CHANNELS 3 Zrotation Yrotation Xrotation
						JOINT Head
						{
							OFFSET -0.08608 1.67844 -0.12081
							CHANNELS 3 Zrotation Yrotation Xrotation
							End Site
							{
								OFFSET -0.03521 1.83380 -0.05059
							}
						}
					}
				}
				JOINT LeftShoulder
				{
					OFFSET 0 0 0
					CHANNELS 3 Zrotation Yrotation Xrotation
					JOINT LeftArm
					{
						OFFSET 3.28197 0.84325 -0.19106
						CHANNELS 3 Zrotation Yrotation Xrotation
						JOINT LeftForeArm
						{
							OFFSET 5.24318 -0.00000 -0.00000
							CHANNELS 3 Zrotation Yrotation Xrotation
							JOINT LeftHand
							{
								OFFSET 2.98999 -0.00000 0.00000
								CHANNELS 3 Zrotation Yrotation Xrotation
								JOINT LeftFingerBase
								{
									OFFSET 0 0 0
									CHANNELS 3 Zrotation Yrotation Xrotation
									JOINT LeftHandIndex1
									{
										OFFSET 0.72674 -0.00000 0.00000
										CHANNELS 3 Zrotation Yrotation Xrotation
										End Site
										{
											OFFSET 0.58592 -0.00000 0.00000
										}
									}
								}
								JOINT LThumb
								{
									OFFSET 0 0 0
									CHANNELS 3 Zrotation Yrotation Xrotation
									End Site
									{
										OFFSET 0.59487 -0.00000 0.59487
									}
								}
							}
						}
					}
				}
				JOINT RightShoulder
				{
					OFFSET 0 0 0
					CHANNELS 3 Zrotation Yrotation Xrotation
					JOINT RightArm
					{
						OFFSET -3.30963 0.78377 0.14264
						CHANNELS 3 Zrotation Yrotation Xrotation
						JOINT RightForeArm
						{
							OFFSET -5.37045 -0.00000 0.00000
							CHANNELS 3 Zrotation Yrotation Xrotation
							JOINT RightHand
							{
								OFFSET -2.92792 -0.00000 0.00000
								CHANNELS 3 Zrotation Yrotation Xrotation
								JOINT RightFingerBase
								{
									OFFSET 0 0 0
									CHANNELS 3 Zrotation Yrotation Xrotation
									JOINT RightHandIndex1
									{
										OFFSET -0.78450 -0.00000 0.00000
										CHANNELS 3 Zrotation Yrotation Xrotation
										End Site
										{
											OFFSET -0.63248 -0.00000 0.00000
										}
									}
								}
								JOINT RThumb
								{
									OFFSET 0 0 0
									CHANNELS 3 Zrotation Yrotation Xrotation
									End Site
									{
										OFFSET -0.64214 -0.00000 0.64214
									}
								}
							}
						}
					}
				}
			}
		}
	}
}
MOTION
Frames: 12
Frame Time: .0083333
0.2066 18.0537 0.92 0 0 0 0 0 0 -21 0 0 0 0 0 0 0 0 0 0 0 0 0 0 21 0 0 0 0 0 0 0 0 0 0 0 0 0 0 0 0 0 0 0 0 0 0 -16 0 0 21 0 0 11 0 0 0 -8 0 0 0 0 0 0 0 0 0 0 0 0 0 0 0 0 0 0 0 0 8 0 0 0 0 0 0 0 0 0 0 0 0 0 0 0 0 0
0.2066 18.0537 0.9200 -1.2559 15.9521 11.7244 0.0000 0.0000 0.0000 -12.2050 -17.5253 -17.7462 1.6868 8.1808 23.2647 0.2231 -3.6019 -8.4067 1.1198 -6.7221 -18.8948 0.0000 0.0000 0.0000 20.6879 3.1278 -18.2003 -1.5768 -7.9226 22.4794 -0.2669 -11.1790 -19.2901 -0.0027 0.3336 -0.9165 0.2027 1.6540 1.5999 4.8992 2.5880 -6.0357 4.8374 1.4601 -7.4467 1.4299 0.6180 3.8256 -11.2425 -1.3730 -25.1314 -3.9629 0.3428 -8.4760 0.0000 0.0000 0.0000 33.0431 -5.4739 -60.1454 23.6431 -34.7845 -7.5020 -0.0000 -0.0000 1.5925 -14.4936 24.9376 -6.2202 -7.1250 0.0000 -0.0000 -42.6193 49.9079 -6.1580 0.0000 0.0000 0.0000 7.0722 -2.7882 8.8562 -94.2693 59.9310 -63.6964 0.0000 -0.0000 -10.8945 29.0321 1.0490 0.5822 7.1250 -0.0000 -0.0000 38.8872 -26.1656 23.4242
0.2070 18.0586 0.9152 -1.2801 15.8557 11.8060 0.0000 0.0000 0.0000 -12.1653 -17.6158 -17.7661 1.6784 8.1613 23.2052 0.2247 -3.3869 -8.4269 1.1778 -6.8881 -19.3843 0.0000 0.0000 0.0000 20.6828 3.2466 -18.2410 -1.5656 -7.8956 22.3974 -0.2667 -11.1415 -19.2445 -0.0010 0.2043 -0.5614 0.2308 1.6333 1.6944 4.9073 2.5656 -6.0472 4.8302 1.4482 -7.5114 1.3552 0.6194 3.7867 -11.1582 -1.3560 -25.0519 -3.9184 0.3456 -8.4402 0.0000 0.0000 0.0000 32.9956 -5.4549 -60.0528 23.6655 -34.8086 -7.5148 -0.0000 -0.0000 1.4808 -14.4613 24.9700 -6.2133 -7.1250 0.0000 -0.0000 -42.6165 49.9384 -6.1943 0.0000 0.0000 0.0000 7.0324 -2.7617 8.8758 -94.4148 59.9262 -63.8224 0.0000 -0.0000 -10.8821 29.0605 1.0573 0.5875 7.1250 -0.0000 -0.0000 38.8977 -26.1527 23.4523
0.2065 18.0621 0.9108 -1.3017 15.7373 11.8810 0.0000 0.0000 0.0000 -12.1352 -17.6650 -17.7738 1.6633 8.1264 23.0988 0.2244 -3.1527 -8.4168 1.2354 -7.0485 -19.8592 0.0000 0.0000 0.0000 20.6780 3.3608 -18.3065 -1.5616 -7.8859 22.3682 -0.2591 -11.1488 -19.1673 -0.0014 0.2395 -0.6579 0.2321 1.6227 1.7542 4.9231 2.5533 -6.0317 4.8462 1.4423 -7.5294 1.3521 0.6024 3.7551 -11.1560 -1.3753 -24.9775 -3.9124 0.3327 -8.4102 -0.0000 0.0000 0.0000 33.0022 -5.6946 -60.2561 23.5878 -34.7253 -7.4705 -0.0000 -0.0000 1.7382 -14.2597 25.0299 -6.1373 -7.1250 0.0000 -0.0000 -42.4941 50.0177 -6.2650 -0.0000 0.0000 0.0000 6.9694 -2.7341 8.8892 -94.5030 59.9232 -63.8987 0.0000 -0.0000 -10.9180 29.1480 1.1508 0.6417 7.1250 -0.0000 -0.0000 38.9057 -26.0523 23.5927
0.2067 18.0663 0.9072 -1.2895 15.5978 11.9412 0.0000 0.0000 0.0000 -12.1546 -17.6991 -17.7281 1.6450 8.0837 22.9686 0.2236 -2.9286 -8.4019 1.2742 -7.1542 -20.1729 0.0000 0.0000 0.0000 20.6237 3.4990 -18.3437 -1.5590 -7.8799 22.3498 -0.2595 -11.1114 -19.1277 -0.0003 0.1107 -0.3040 0.2051 1.6088 1.7984 4.9208 2.5325 -6.0088 4.8597 1.4330 -7.5296 1.4500 0.5841 3.9333 -11.2383 -1.4192 -25.0384 -3.9586 0.3167 -8.4676 -0.0000 -0.0000 0.0000 33.0152 -5.9937 -60.4967 23.5414 -34.6756 -7.4441 -0.0000 -0.0000 2.1545 -14.2548 25.0941 -6.1497 -7.1250 0.0000 -0.0000 -42.5371 50.0686 -6.3351 -0.0000 -0.0000 0.0000 6.9189 -2.6688 8.9241 -94.4780 59.9241 -63.8770 0.0000 -0.0000 -10.8785 29.1297 1.2924 0.7201 7.1250 -0.0000 -0.0000 38.8466 -25.9301 23.6906
0.2069 18.0704 0.9046 -1.2051 15.4550 12.0426 0.0000 0.0000 0.0000 -12.2426 -17.7542 -17.6795 1.6248 8.0364 22.8248 0.2223 -2.7208 -8.3809 1.2885 -7.1927 -20.2875 0.0000 0.0000 0.0000 20.4878 3.6160 -18.4378 -1.5595 -7.8809 22.3529 -0.2677 -10.9944 -19.0859 -0.0005 -0.1491 0.4097 0.0838 1.5787 1.7996 4.9224 2.4823 -5.9622 4.9343 1.4140 -7.4813 1.5185 0.6119 3.9551 -11.3225 -1.3900 -24.9998 -4.0009 0.3307 -8.4561 -0.0000 -0.0000 0.0000 32.8487 -5.6401 -60.0165 23.7355 -34.8833 -7.5548 -0.0000 -0.0000 1.7155 -14.4145 25.2165 -6.2492 -7.1250 0.0000 -0.0000 -42.7592 50.1379 -6.4650 -0.0000 -0.0000 0.0000 6.8183 -2.5387 8.9114 -94.4017 59.9267 -63.8110 0.0000 -0.0000 -10.8202 29.0434 1.3292 0.7380 7.1250 -0.0000 -0.0000 38.7927 -25.9144 23.6540
0.2080 18.0747 0.9020 -1.1281 15.3130 12.1191 0.0000 0.0000 0.0000 -12.3371 -17.8180 -17.6068 1.6063 7.9928 22.6922 0.2220 -2.4854 -8.3875 1.2902 -7.1972 -20.3009 0.0000 0.0000 0.0000 20.3664 3.6948 -18.5095 -1.5590 -7.8797 22.3494 -0.2548 -11.0060 -18.9524 -0.0000 -0.0222 0.0611 -0.0188 1.5545 1.7955 4.9345 2.4402 -5.8880 5.0088 1.3975 -7.4002 1.5369 0.6244 3.8993 -11.3569 -1.3698 -24.8903 -4.0128 0.3361 -8.4064 -0.0000 -0.0000 0.0000 32.8586 -5.9456 -60.4271 23.6271 -34.7675 -7.4929 -0.0000 -0.0000 2.3882 -14.3688 25.0655 -6.1941 -7.1250 0.0000 -0.0000 -42.6101 50.0278 -6.3009 -0.0000 -0.0000 0.0000 6.6858 -2.4850 8.8876 -94.4441 59.9252 -63.8477 0.0000 -0.0000 -10.7707 28.9695 1.2335 0.6828 7.1250 -0.0000 -0.0000 38.7916 -26.0139 23.5227
0.2083 18.0770 0.8975 -1.0495 15.1655 12.2298 0.0000 0.0000 0.0000 -12.4097 -17.9040 -17.6051 1.5921 7.9590 22.5897 0.2212 -2.2852 -8.3859 1.2897 -7.1959 -20.2969 0.0000 0.0000 0.0000 20.2432 3.8207 -18.5901 -1.5565 -7.8738 22.3314 -0.2525 -10.9529 -18.8636 -0.0000 -0.0430 0.1182 -0.1306 1.5434 1.7694 4.9490 2.4154 -5.8218 5.0900 1.3903 -7.3172 1.4777 0.5979 3.9325 -11.3446 -1.4184 -24.9341 -3.9963 0.3192 -8.4318 0.0000 -0.0000 0.0000 32.7942 -5.9759 -60.4210 23.6530 -34.7952 -7.5076 -0.0000 -0.0000 2.6001 -14.2651 25.0169 -6.1367 -7.1250 0.0000 -0.0000 -42.4890 50.0067 -6.2508 0.0000 -0.0000 0.0000 6.5142 -2.4449 8.8380 -94.4867 59.9238 -63.8846 0.0000 -0.0000 -10.7696 28.9839 1.1810 0.6541 7.1250 -0.0000 -0.0000 38.8172 -26.0578 23.4922
0.2068 18.0776 0.8923 -1.1228 15.0616 12.3026 0.0000 0.0000 0.0000 -12.3004 -17.9784 -17.6522 1.5831 7.9376 22.5248 0.2197 -2.0759 -8.3763 1.3405 -7.3306 -20.6986 0.0000 0.0000 0.0000 20.2935 3.9680 -18.6548 -1.5517 -7.8622 22.2963 -0.2315 -11.0252 -18.7053 -0.0006 0.1550 -0.4259 -0.0745 1.5308 1.7962 4.9904 2.4033 -5.7927 5.1028 1.3818 -7.3001 1.3613 0.5632 4.0269 -11.2973 -1.4842 -25.0337 -3.9589 0.2996 -8.4893 -0.0000 0.0000 0.0000 32.7352 -6.0055 -60.3315 23.7026 -34.8481 -7.5359 -0.0000 -0.0000 2.7746 -14.1705 25.0514 -6.1025 -7.1250 0.0000 -0.0000 -42.4361 50.0490 -6.2907 -0.0000 0.0000 0.0000 6.3588 -2.4245 8.8300 -94.5538 59.9215 -63.9427 0.0000 -0.0000 -10.8404 29.1459 1.0989 0.6127 7.1250 -0.0000 -0.0000 38.9232 -26.0989 23.5498
0.2050 18.0792 0.8860 -1.1989 14.9311 12.3751 0.0000 0.0000 0.0000 -12.1977 -18.0031 -17.7140 1.5750 7.9182 22.4658 0.2172 -1.8837 -8.3492 1.3598 -7.3812 -20.8496 0.0000 0.0000 0.0000 20.3332 4.1845 -18.7103 -1.5460 -7.8485 22.2549 -0.2078 -11.1546 -18.5829 -0.0016 0.2586 -0.7106 -0.0182 1.5263 1.8491 5.0163 2.4014 -5.7549 5.0974 1.3776 -7.2888 1.3133 0.5515 4.0309 -11.2621 -1.5021 -25.0484 -3.9374 0.2923 -8.4966 -0.0000 0.0000 0.0000 32.7147 -6.0674 -60.3885 23.7095 -34.8555 -7.5399 -0.0000 -0.0000 3.1045 -14.0910 25.1374 -6.0864 -7.1250 0.0000 -0.0000 -42.4334 50.1289 -6.3859 -0.0000 0.0000 0.0000 6.2227 -2.3709 8.8283 -94.5526 59.9215 -63.9416 0.0000 -0.0000 -10.8532 29.1537 1.0373 0.5786 7.1250 -0.0000 -0.0000 38.9490 -26.1521 23.5069
0.2045 18.0815 0.8792 -1.2111 14.7898 12.4771 0.0000 0.0000 0.0000 -12.1638 -18.0378 -17.7869 1.5665 7.8979 22.4043 0.2152 -1.7438 -8.3272 1.3272 -7.2955 -20.5939 0.0000 0.0000 0.0000 20.3053 4.3508 -18.7997 -1.5409 -7.8361 22.2174 -0.1921 -11.1888 -18.4375 -0.0008 0.1828 -0.5022 0.0083 1.5327 1.8743 5.0028 2.4093 -5.7246 5.0664 1.3785 -7.2695 1.3626 0.5408 4.0403 -11.3075 -1.5188 -24.9934 -3.9585 0.2823 -8.4806 -0.0000 -0.0000 0.0000 32.7039 -6.0634 -60.2668 23.7439 -34.8923 -7.5596 -0.0000 -0.0000 3.2738 -13.9877 25.0450 -6.0197 -7.1250 0.0000 -0.0000 -42.2802 50.0736 -6.2880 -0.0000 -0.0000 0.0000 6.1169 -2.3169 8.7859 -94.4188 59.9261 -63.8259 0.0000 -0.0000 -10.7706 29.0661 1.1415 0.6344 7.1250 -0.0000 -0.0000 38.8702 -26.0767 23.5232
0.2060 18.0849 0.8740 -1.1601 14.6616 12.5682 0.0000 0.0000 0.0000 -12.2144 -18.1191 -17.7916 1.5586 7.8789 22.3468 0.2144 -1.5506 -8.3398 1.3094 -7.2485 -20.4536 0.0000 0.0000 0.0000 20.2092 4.4691 -18.8585 -1.5343 -7.8200 22.1686 -0.1733 -11.2745 -18.3179 -0.0039 0.4042 -1.1105 0.0060 1.5273 1.8917 4.9634 2.3972 -5.6850 5.0260 1.3698 -7.2335 1.3627 0.5395 4.0886 -11.2958 -1.5214 -25.0003 -3.9548 0.2810 -8.4922 0.0000 -0.0000 0.0000 32.7123 -6.0952 -60.1601 23.7914 -34.9429 -7.5867 -0.0000 -0.0000 3.5354 -13.9507 24.9358 -5.9789 -7.1250 0.0000 -0.0000 -42.1698 49.9942 -6.1710 0.0000 -0.0000 0.0000 6.0439 -2.2433 8.6827 -94.2985 59.9301 -63.7218 0.0000 -0.0000 -10.6998 29.1948 1.2584 0.7030 7.1250 -0.0000 -0.0000 38.8894 -25.9475 23.7132
